<mxfile host="app.diagrams.net" agent="Mozilla/5.0 (Windows NT 10.0; Win64; x64) AppleWebKit/537.36 (KHTML, like Gecko) Chrome/127.0.0.0 Safari/537.36" version="24.7.7">
  <diagram name="第 1 页" id="2RVUCIvTxmHm0UKduwhS">
    <mxGraphModel dx="1434" dy="746" grid="1" gridSize="10" guides="1" tooltips="1" connect="1" arrows="1" fold="1" page="1" pageScale="1" pageWidth="4681" pageHeight="3300" math="0" shadow="0">
      <root>
        <mxCell id="0" />
        <mxCell id="1" parent="0" />
        <mxCell id="uwEyuwBa11lFH1Ozhfpp-16" style="edgeStyle=orthogonalEdgeStyle;rounded=0;orthogonalLoop=1;jettySize=auto;html=1;exitX=0.5;exitY=1;exitDx=0;exitDy=0;entryX=0.5;entryY=0;entryDx=0;entryDy=0;" edge="1" parent="1" source="uwEyuwBa11lFH1Ozhfpp-1" target="uwEyuwBa11lFH1Ozhfpp-4">
          <mxGeometry relative="1" as="geometry" />
        </mxCell>
        <mxCell id="uwEyuwBa11lFH1Ozhfpp-1" value="判定是否是回流玩家" style="rounded=0;whiteSpace=wrap;html=1;" vertex="1" parent="1">
          <mxGeometry x="570" y="60" width="150" height="40" as="geometry" />
        </mxCell>
        <mxCell id="uwEyuwBa11lFH1Ozhfpp-22" style="edgeStyle=orthogonalEdgeStyle;rounded=0;orthogonalLoop=1;jettySize=auto;html=1;exitX=0.5;exitY=1;exitDx=0;exitDy=0;" edge="1" parent="1" source="uwEyuwBa11lFH1Ozhfpp-2" target="uwEyuwBa11lFH1Ozhfpp-12">
          <mxGeometry relative="1" as="geometry" />
        </mxCell>
        <mxCell id="uwEyuwBa11lFH1Ozhfpp-25" value="" style="edgeStyle=orthogonalEdgeStyle;rounded=0;orthogonalLoop=1;jettySize=auto;html=1;" edge="1" parent="1" source="uwEyuwBa11lFH1Ozhfpp-2" target="uwEyuwBa11lFH1Ozhfpp-9">
          <mxGeometry relative="1" as="geometry" />
        </mxCell>
        <mxCell id="uwEyuwBa11lFH1Ozhfpp-2" value="有backFlowTime" style="rhombus;whiteSpace=wrap;html=1;" vertex="1" parent="1">
          <mxGeometry x="820" y="183" width="135" height="60" as="geometry" />
        </mxCell>
        <mxCell id="uwEyuwBa11lFH1Ozhfpp-3" value="是回流玩家" style="rounded=0;whiteSpace=wrap;html=1;" vertex="1" parent="1">
          <mxGeometry x="585" y="270" width="120" height="45" as="geometry" />
        </mxCell>
        <mxCell id="uwEyuwBa11lFH1Ozhfpp-17" style="edgeStyle=orthogonalEdgeStyle;rounded=0;orthogonalLoop=1;jettySize=auto;html=1;exitX=0.5;exitY=1;exitDx=0;exitDy=0;" edge="1" parent="1" source="uwEyuwBa11lFH1Ozhfpp-4" target="uwEyuwBa11lFH1Ozhfpp-5">
          <mxGeometry relative="1" as="geometry" />
        </mxCell>
        <mxCell id="uwEyuwBa11lFH1Ozhfpp-4" value="&lt;div&gt;根据 logoutTime&lt;/div&gt;检测回流状态" style="rounded=0;whiteSpace=wrap;html=1;" vertex="1" parent="1">
          <mxGeometry x="577.5" y="120" width="135" height="40" as="geometry" />
        </mxCell>
        <mxCell id="uwEyuwBa11lFH1Ozhfpp-18" style="edgeStyle=orthogonalEdgeStyle;rounded=0;orthogonalLoop=1;jettySize=auto;html=1;exitX=0.5;exitY=1;exitDx=0;exitDy=0;" edge="1" parent="1" source="uwEyuwBa11lFH1Ozhfpp-5" target="uwEyuwBa11lFH1Ozhfpp-3">
          <mxGeometry relative="1" as="geometry" />
        </mxCell>
        <mxCell id="uwEyuwBa11lFH1Ozhfpp-19" style="edgeStyle=orthogonalEdgeStyle;rounded=0;orthogonalLoop=1;jettySize=auto;html=1;exitX=1;exitY=0.5;exitDx=0;exitDy=0;" edge="1" parent="1" source="uwEyuwBa11lFH1Ozhfpp-5" target="uwEyuwBa11lFH1Ozhfpp-2">
          <mxGeometry relative="1" as="geometry" />
        </mxCell>
        <mxCell id="uwEyuwBa11lFH1Ozhfpp-5" value="是回流状态" style="rhombus;whiteSpace=wrap;html=1;" vertex="1" parent="1">
          <mxGeometry x="578.75" y="188" width="132.5" height="50" as="geometry" />
        </mxCell>
        <mxCell id="uwEyuwBa11lFH1Ozhfpp-9" value="不是回流玩家" style="rounded=0;whiteSpace=wrap;html=1;" vertex="1" parent="1">
          <mxGeometry x="1030" y="197" width="120" height="32" as="geometry" />
        </mxCell>
        <mxCell id="uwEyuwBa11lFH1Ozhfpp-23" style="edgeStyle=orthogonalEdgeStyle;rounded=0;orthogonalLoop=1;jettySize=auto;html=1;exitX=0.5;exitY=1;exitDx=0;exitDy=0;" edge="1" parent="1" source="uwEyuwBa11lFH1Ozhfpp-12" target="uwEyuwBa11lFH1Ozhfpp-15">
          <mxGeometry relative="1" as="geometry" />
        </mxCell>
        <mxCell id="uwEyuwBa11lFH1Ozhfpp-24" style="edgeStyle=orthogonalEdgeStyle;rounded=0;orthogonalLoop=1;jettySize=auto;html=1;exitX=1;exitY=0.5;exitDx=0;exitDy=0;" edge="1" parent="1" source="uwEyuwBa11lFH1Ozhfpp-12" target="uwEyuwBa11lFH1Ozhfpp-13">
          <mxGeometry relative="1" as="geometry" />
        </mxCell>
        <mxCell id="uwEyuwBa11lFH1Ozhfpp-12" value="&lt;div&gt;属于&lt;/div&gt;backFlowTime + 30d" style="rhombus;whiteSpace=wrap;html=1;" vertex="1" parent="1">
          <mxGeometry x="812.5" y="270" width="150" height="60" as="geometry" />
        </mxCell>
        <mxCell id="uwEyuwBa11lFH1Ozhfpp-13" value="不是回流玩家" style="rounded=0;whiteSpace=wrap;html=1;" vertex="1" parent="1">
          <mxGeometry x="1030" y="285" width="120" height="30" as="geometry" />
        </mxCell>
        <mxCell id="uwEyuwBa11lFH1Ozhfpp-15" value="是回流玩家" style="rounded=0;whiteSpace=wrap;html=1;" vertex="1" parent="1">
          <mxGeometry x="827.5" y="360" width="120" height="45" as="geometry" />
        </mxCell>
        <mxCell id="uwEyuwBa11lFH1Ozhfpp-20" value="不是" style="text;html=1;align=center;verticalAlign=middle;resizable=0;points=[];autosize=1;strokeColor=none;fillColor=none;" vertex="1" parent="1">
          <mxGeometry x="740" y="188" width="50" height="30" as="geometry" />
        </mxCell>
        <mxCell id="uwEyuwBa11lFH1Ozhfpp-21" value="是" style="text;html=1;align=center;verticalAlign=middle;resizable=0;points=[];autosize=1;strokeColor=none;fillColor=none;" vertex="1" parent="1">
          <mxGeometry x="610" y="240" width="40" height="30" as="geometry" />
        </mxCell>
        <mxCell id="uwEyuwBa11lFH1Ozhfpp-26" value="没有" style="text;html=1;align=center;verticalAlign=middle;resizable=0;points=[];autosize=1;strokeColor=none;fillColor=none;" vertex="1" parent="1">
          <mxGeometry x="957.5" y="188" width="50" height="30" as="geometry" />
        </mxCell>
        <mxCell id="uwEyuwBa11lFH1Ozhfpp-27" value="有" style="text;html=1;align=center;verticalAlign=middle;resizable=0;points=[];autosize=1;strokeColor=none;fillColor=none;" vertex="1" parent="1">
          <mxGeometry x="850" y="243" width="40" height="30" as="geometry" />
        </mxCell>
        <mxCell id="uwEyuwBa11lFH1Ozhfpp-28" value="不属于" style="text;html=1;align=center;verticalAlign=middle;resizable=0;points=[];autosize=1;strokeColor=none;fillColor=none;" vertex="1" parent="1">
          <mxGeometry x="960" y="278" width="60" height="30" as="geometry" />
        </mxCell>
        <mxCell id="uwEyuwBa11lFH1Ozhfpp-29" value="属于" style="text;html=1;align=center;verticalAlign=middle;resizable=0;points=[];autosize=1;strokeColor=none;fillColor=none;" vertex="1" parent="1">
          <mxGeometry x="885" y="328" width="50" height="30" as="geometry" />
        </mxCell>
      </root>
    </mxGraphModel>
  </diagram>
</mxfile>
